<svg baseProfile="tiny" xmlns="http://www.w3.org/2000/svg" width="512" height="249" viewBox="0 122.5 512 249"><g fill="#000003"><path d="M103.462 207.06c15.82 0 26.365 2.92 31.637 8.762 5.266 5.84 6.52 15.867 3.765 30.074-2.88 14.795-8.423 25.355-16.64 31.682-8.22 6.328-20.725 9.488-37.514 9.488H59.38l15.55-80.005h28.532zM2 368.058h41.643l9.877-50.822h35.67c15.738 0 28.685-1.65 38.85-4.96 10.164-3.306 19.4-8.85 27.716-16.63 6.978-6.416 12.624-13.49 16.948-21.228 4.32-7.73 7.388-16.267 9.202-25.6 4.406-22.66 1.08-40.31-9.965-52.956s-28.618-18.966-52.708-18.966H39.154L2 368.057zM212.49 126.07h41.314l-9.878 50.824h36.807c23.156 0 39.132 4.042 47.924 12.117 8.79 8.08 11.425 21.17 7.91 39.267l-17.286 88.958h-41.97l16.437-84.583c1.87-9.622 1.184-16.185-2.064-19.684-3.248-3.5-10.158-5.25-20.73-5.25h-33.02L216.65 317.23h-41.315l37.155-191.16zM428.49 207.06c15.82 0 26.365 2.92 31.637 8.762 5.27 5.84 6.523 15.867 3.766 30.074-2.88 14.795-8.42 25.355-16.64 31.682-8.22 6.328-20.725 9.488-37.514 9.488h-25.33l15.55-80.005h28.53zM327.03 368.058h41.642l9.876-50.822h35.67c15.738 0 28.686-1.65 38.85-4.96 10.165-3.306 19.4-8.85 27.718-16.63 6.98-6.416 12.624-13.49 16.948-21.228 4.317-7.73 7.388-16.267 9.2-25.6 4.406-22.66 1.082-40.31-9.965-52.956-11.047-12.644-28.62-18.966-52.71-18.966h-80.076L327.03 368.057z"/></g></svg>